# xmcd
#
# Track frame offsets:
#	150
#	11407
#	22229
#	34207
#	46087
#	56098
#	68439
#	81647
#	94317
#	105846
#	116098
#	130216
#	142073
#	153056
#	164064
#	174132
#	184827
#	198241
#	211038
#	222977
#	233768
#	244234
#	255487
#	266256
#	277215
#	288543
#	298950
#	316094
#
# Disc length: 4361 seconds
#
# Revision: 1
# Processed by: cddbd v1.5.2PL0 Copyright (c) Steve Scherf et al.
# Submitted via: audiograbber 1.83.01
#
DISCID=9d11071c
DTITLE=mixed - LOOKING BACK
DYEAR=1900
DGENRE=Country
TTITLE0=NAT KING COLE - LOOKING BACK
TTITLE1=JIM REEVES - MEMORIES ARE MADE OF THIS
TTITLE2=FRANK SINATRA - YOUNG AT HEART
TTITLE3=BING CROSBY - DEAR HEARTS AND GENTLE PEOPLE
TTITLE4=MICHEAL HOLLIDAY - I WONDER WHOSE KISSING HER NOW
TTITLE5=UNKNOWN - RED ROSES FOR A BLUE LADY
TTITLE6=ANDY WILLIAMS - THE ANNIVERSARY SONG
TTITLE7=PERRY COMO - MAGIC MOMENTS
TTITLE8=JIM REEVES - MY HAPPINESS
TTITLE9=PAT BOONE - DON'T FORBIT ME
TTITLE10=DEAN MARTIN - THAT'S AMORE
TTITLE11=DEAN MARTIN - HOUSTON
TTITLE12=FATS DOMINO - BLUEBERRY HILL
TTITLE13=FRANK SINATRA - SOMETHING STUPID
TTITLE14=PERRY COMO - CATERINA
TTITLE15=PAT BOONE - LOVE LETTERS IN THE SAND
TTITLE16=BING CROSBY - IT'S BEEN A LONG,LONG TIME
TTITLE17=JIM REEVES - I LOVE YOU BECAUSE
TTITLE18=NAT KING COLE - PRETEND
TTITLE19=JIM REEVES - MOONLIGHT AND ROSES
TTITLE20=PAT BOONE - REMEMBER YOU'RE MINE
TTITLE21=PERRY COMO - EASTER PARADE
TTITLE22=THE AMES BROTHERS - TAMMY
TTITLE23=BROOK BENTON - IT'S JUST A MATTER OF TIME
TTITLE24=ANDY WILLIAMS - WHERE IS YOUR HEART
TTITLE25=DEAN MARTIN - I WILL
TTITLE26=ROGER WHITTAKER - THE LAST FAREWELL
TTITLE27=JIM REEVES - WELCOME TO MY WORLD
EXTD=
EXTT0=
EXTT1=
EXTT2=
EXTT3=
EXTT4=
EXTT5=
EXTT6=
EXTT7=
EXTT8=
EXTT9=
EXTT10=
EXTT11=
EXTT12=
EXTT13=
EXTT14=
EXTT15=
EXTT16=
EXTT17=
EXTT18=
EXTT19=
EXTT20=
EXTT21=
EXTT22=
EXTT23=
EXTT24=
EXTT25=
EXTT26=
EXTT27=
PLAYORDER=
